<svg width="228" height="36" viewBox="0 0 228 36" fill="none" xmlns="http://www.w3.org/2000/svg">
<path d="M0.468065 28V1.81818H10.951C12.8772 1.81818 14.4837 2.10369 15.7706 2.67472C17.0576 3.24574 18.0249 4.03835 18.6726 5.05256C19.3203 6.05824 19.6442 7.21733 19.6442 8.52983C19.6442 9.55256 19.4397 10.4517 19.0306 11.2273C18.6215 11.9943 18.059 12.625 17.3431 13.1193C16.6357 13.6051 15.826 13.9503 14.9141 14.1548V14.4105C15.9112 14.4531 16.8445 14.7344 17.7138 15.2543C18.5916 15.7741 19.3033 16.5028 19.8487 17.4403C20.3942 18.3693 20.6669 19.4773 20.6669 20.7642C20.6669 22.1534 20.3218 23.3935 19.6314 24.4844C18.9496 25.5668 17.9397 26.4233 16.6016 27.054C15.2635 27.6847 13.6144 28 11.6541 28H0.468065ZM6.00358 23.4744H10.5164C12.059 23.4744 13.184 23.1804 13.8914 22.5923C14.5987 21.9957 14.9524 21.2031 14.9524 20.2145C14.9524 19.4901 14.7777 18.8509 14.4283 18.2969C14.0789 17.7429 13.5803 17.3082 12.9326 16.9929C12.2933 16.6776 11.5306 16.5199 10.6442 16.5199H6.00358V23.4744ZM6.00358 12.7741H10.1073C10.8658 12.7741 11.5391 12.642 12.1272 12.3778C12.7237 12.1051 13.1925 11.7216 13.5334 11.2273C13.8828 10.733 14.0576 10.1406 14.0576 9.45028C14.0576 8.50426 13.7209 7.74148 13.0476 7.16193C12.3828 6.58239 11.4368 6.29261 10.2095 6.29261H6.00358V12.7741ZM34.7012 8.36364V12.4545H22.8759V8.36364H34.7012ZM25.5606 3.65909H31.0066V21.9659C31.0066 22.4687 31.0833 22.8608 31.2367 23.142C31.3901 23.4148 31.6032 23.6065 31.8759 23.7173C32.1571 23.8281 32.481 23.8835 32.8475 23.8835C33.1032 23.8835 33.3588 23.8622 33.6145 23.8196C33.8702 23.7685 34.0662 23.7301 34.2026 23.7045L35.0591 27.7571C34.7864 27.8423 34.4029 27.9403 33.9086 28.0511C33.4142 28.1705 32.8134 28.2429 32.106 28.2685C30.7935 28.3196 29.6429 28.1449 28.6543 27.7443C27.6742 27.3437 26.9114 26.7216 26.3659 25.8778C25.8205 25.0341 25.552 23.9687 25.5606 22.6818V3.65909ZM47 28.3835C44.9886 28.3835 43.2585 27.9574 41.8096 27.1051C40.3693 26.2443 39.2613 25.0511 38.4858 23.5256C37.7187 22 37.3352 20.2443 37.3352 18.2585C37.3352 16.2472 37.723 14.483 38.4986 12.9659C39.2827 11.4403 40.3949 10.2514 41.8352 9.39915C43.2756 8.53835 44.9886 8.10795 46.9744 8.10795C48.6875 8.10795 50.1875 8.41903 51.4744 9.04119C52.7613 9.66335 53.7798 10.5369 54.5298 11.6619C55.2798 12.7869 55.6932 14.108 55.7699 15.625H50.6307C50.4858 14.6449 50.1023 13.8565 49.4801 13.2599C48.8665 12.6548 48.0611 12.3523 47.0639 12.3523C46.2202 12.3523 45.4829 12.5824 44.8523 13.0426C44.2301 13.4943 43.7443 14.1548 43.3949 15.0241C43.0454 15.8935 42.8707 16.946 42.8707 18.1818C42.8707 19.4347 43.0412 20.5 43.3821 21.3778C43.7315 22.2557 44.2216 22.9247 44.8523 23.3849C45.4829 23.8452 46.2202 24.0753 47.0639 24.0753C47.6861 24.0753 48.2443 23.9474 48.7386 23.6918C49.2415 23.4361 49.6548 23.0653 49.9787 22.5795C50.3111 22.0852 50.5284 21.4929 50.6307 20.8026H55.7699C55.6846 22.3026 55.2756 23.6236 54.5426 24.7656C53.8182 25.8991 52.8167 26.7855 51.5383 27.4247C50.2599 28.0639 48.7471 28.3835 47 28.3835ZM68.2956 28.3835C66.2757 28.3835 64.5371 27.9744 63.0797 27.1562C61.6308 26.3295 60.5143 25.1619 59.7303 23.6534C58.9462 22.1364 58.5541 20.3423 58.5541 18.2713C58.5541 16.2514 58.9462 14.4787 59.7303 12.9531C60.5143 11.4276 61.618 10.2386 63.0413 9.38636C64.4732 8.53409 66.1521 8.10795 68.0783 8.10795C69.3737 8.10795 70.5797 8.31676 71.6962 8.73438C72.8212 9.14347 73.8013 9.76136 74.6365 10.5881C75.4803 11.4148 76.1365 12.4545 76.6053 13.7074C77.074 14.9517 77.3084 16.4091 77.3084 18.0795V19.5753H60.7274V16.2003H72.182C72.182 15.4162 72.0115 14.7216 71.6706 14.1165C71.3297 13.5114 70.8567 13.0384 70.2516 12.6974C69.655 12.348 68.9604 12.1733 68.1678 12.1733C67.341 12.1733 66.6081 12.3651 65.9689 12.7486C65.3382 13.1236 64.8439 13.6307 64.4859 14.2699C64.128 14.9006 63.9447 15.6037 63.9362 16.3793V19.5881C63.9362 20.5597 64.1152 21.3991 64.4732 22.1065C64.8396 22.8139 65.3553 23.3594 66.02 23.7429C66.6848 24.1264 67.4732 24.3182 68.3851 24.3182C68.9902 24.3182 69.5442 24.233 70.047 24.0625C70.5499 23.892 70.9803 23.6364 71.3382 23.2955C71.6962 22.9545 71.9689 22.5369 72.1564 22.0426L77.1933 22.375C76.9376 23.5852 76.4135 24.642 75.6209 25.5455C74.8368 26.4403 73.8226 27.1392 72.5783 27.642C71.3425 28.1364 69.9149 28.3835 68.2956 28.3835ZM85.1519 8.36364L88.757 15.2287L92.4516 8.36364H98.0383L92.3494 18.1818L98.1917 28H92.6306L88.757 21.2116L84.9474 28H79.3224L85.1519 18.1818L79.5269 8.36364H85.1519ZM101.363 35.3636V8.36364H106.732V11.6619H106.975C107.214 11.1335 107.559 10.5966 108.01 10.0511C108.471 9.49716 109.067 9.03693 109.8 8.67045C110.542 8.29545 111.462 8.10795 112.562 8.10795C113.993 8.10795 115.314 8.48295 116.525 9.23295C117.735 9.97443 118.702 11.0952 119.427 12.5952C120.151 14.0866 120.513 15.9574 120.513 18.2074C120.513 20.3977 120.16 22.2472 119.452 23.7557C118.753 25.2557 117.799 26.3935 116.589 27.169C115.387 27.9361 114.04 28.3196 112.549 28.3196C111.492 28.3196 110.593 28.1449 109.851 27.7955C109.118 27.446 108.517 27.0071 108.049 26.4787C107.58 25.9418 107.222 25.4006 106.975 24.8551H106.809V35.3636H101.363ZM106.694 18.1818C106.694 19.3494 106.856 20.3679 107.179 21.2372C107.503 22.1065 107.972 22.7841 108.586 23.2699C109.199 23.7472 109.945 23.9858 110.823 23.9858C111.709 23.9858 112.459 23.7429 113.073 23.2571C113.687 22.7628 114.151 22.081 114.466 21.2116C114.79 20.3338 114.952 19.3239 114.952 18.1818C114.952 17.0483 114.794 16.0511 114.479 15.1903C114.164 14.3295 113.699 13.6562 113.086 13.1705C112.472 12.6847 111.718 12.4418 110.823 12.4418C109.937 12.4418 109.187 12.6761 108.573 13.1449C107.968 13.6136 107.503 14.2784 107.179 15.1392C106.856 16 106.694 17.0142 106.694 18.1818ZM129.68 1.81818V28H124.234V1.81818H129.68ZM139.732 28.3707C138.479 28.3707 137.363 28.1534 136.383 27.7188C135.402 27.2756 134.627 26.6236 134.056 25.7628C133.493 24.8935 133.212 23.8111 133.212 22.5156C133.212 21.4247 133.412 20.5085 133.813 19.767C134.213 19.0256 134.759 18.429 135.449 17.9773C136.14 17.5256 136.924 17.1847 137.802 16.9545C138.688 16.7244 139.617 16.5625 140.588 16.4688C141.731 16.3494 142.651 16.2386 143.35 16.1364C144.049 16.0256 144.556 15.8636 144.871 15.6506C145.187 15.4375 145.344 15.1222 145.344 14.7045V14.6278C145.344 13.8182 145.088 13.1918 144.577 12.7486C144.074 12.3054 143.358 12.0838 142.429 12.0838C141.449 12.0838 140.669 12.3011 140.09 12.7358C139.51 13.1619 139.127 13.6989 138.939 14.3466L133.902 13.9375C134.158 12.7443 134.661 11.7131 135.411 10.8438C136.161 9.96591 137.128 9.29261 138.313 8.82386C139.506 8.34659 140.887 8.10795 142.455 8.10795C143.546 8.10795 144.59 8.2358 145.587 8.49148C146.593 8.74716 147.483 9.14347 148.259 9.6804C149.043 10.2173 149.661 10.9077 150.113 11.7514C150.564 12.5866 150.79 13.5881 150.79 14.7557V28H145.625V25.277H145.472C145.157 25.8906 144.735 26.4318 144.206 26.9006C143.678 27.3608 143.043 27.723 142.302 27.9872C141.56 28.2429 140.704 28.3707 139.732 28.3707ZM141.292 24.6122C142.093 24.6122 142.8 24.4545 143.414 24.1392C144.027 23.8153 144.509 23.3807 144.858 22.8352C145.208 22.2898 145.383 21.6719 145.383 20.9815V18.8977C145.212 19.0085 144.978 19.1108 144.679 19.2045C144.39 19.2898 144.062 19.3707 143.695 19.4474C143.329 19.5156 142.962 19.5795 142.596 19.6392C142.229 19.6903 141.897 19.7372 141.598 19.7798C140.959 19.8736 140.401 20.0227 139.924 20.2273C139.446 20.4318 139.076 20.7088 138.812 21.0582C138.547 21.3991 138.415 21.8253 138.415 22.3366C138.415 23.0781 138.684 23.6449 139.221 24.0369C139.766 24.4205 140.456 24.6122 141.292 24.6122ZM155.105 28V8.36364H160.551V28H155.105ZM157.841 5.83239C157.031 5.83239 156.337 5.56392 155.757 5.02699C155.186 4.48153 154.901 3.82954 154.901 3.07102C154.901 2.32102 155.186 1.67756 155.757 1.14062C156.337 0.59517 157.031 0.322442 157.841 0.322442C158.651 0.322442 159.341 0.59517 159.912 1.14062C160.492 1.67756 160.781 2.32102 160.781 3.07102C160.781 3.82954 160.492 4.48153 159.912 5.02699C159.341 5.56392 158.651 5.83239 157.841 5.83239ZM170.45 16.6477V28H165.004V8.36364H170.194V11.8281H170.424C170.859 10.6861 171.588 9.78267 172.61 9.1179C173.633 8.4446 174.873 8.10795 176.331 8.10795C177.694 8.10795 178.883 8.40625 179.897 9.00284C180.912 9.59943 181.7 10.4517 182.262 11.5597C182.825 12.6591 183.106 13.9716 183.106 15.4972V28H177.66V16.4688C177.669 15.267 177.362 14.3295 176.74 13.6562C176.118 12.9744 175.261 12.6335 174.17 12.6335C173.437 12.6335 172.789 12.7912 172.227 13.1065C171.673 13.4219 171.238 13.8821 170.923 14.4872C170.616 15.0838 170.458 15.804 170.45 16.6477ZM196.437 28.3835C194.417 28.3835 192.679 27.9744 191.221 27.1562C189.773 26.3295 188.656 25.1619 187.872 23.6534C187.088 22.1364 186.696 20.3423 186.696 18.2713C186.696 16.2514 187.088 14.4787 187.872 12.9531C188.656 11.4276 189.76 10.2386 191.183 9.38636C192.615 8.53409 194.294 8.10795 196.22 8.10795C197.515 8.10795 198.721 8.31676 199.838 8.73438C200.963 9.14347 201.943 9.76136 202.778 10.5881C203.622 11.4148 204.278 12.4545 204.747 13.7074C205.216 14.9517 205.45 16.4091 205.45 18.0795V19.5753H188.869V16.2003H200.324C200.324 15.4162 200.153 14.7216 199.812 14.1165C199.471 13.5114 198.998 13.0384 198.393 12.6974C197.797 12.348 197.102 12.1733 196.309 12.1733C195.483 12.1733 194.75 12.3651 194.111 12.7486C193.48 13.1236 192.986 13.6307 192.628 14.2699C192.27 14.9006 192.086 15.6037 192.078 16.3793V19.5881C192.078 20.5597 192.257 21.3991 192.615 22.1065C192.981 22.8139 193.497 23.3594 194.162 23.7429C194.827 24.1264 195.615 24.3182 196.527 24.3182C197.132 24.3182 197.686 24.233 198.189 24.0625C198.692 23.892 199.122 23.6364 199.48 23.2955C199.838 22.9545 200.111 22.5369 200.298 22.0426L205.335 22.375C205.079 23.5852 204.555 24.642 203.763 25.5455C202.979 26.4403 201.964 27.1392 200.72 27.642C199.484 28.1364 198.057 28.3835 196.437 28.3835ZM216.33 28.3196C214.838 28.3196 213.488 27.9361 212.277 27.169C211.076 26.3935 210.121 25.2557 209.414 23.7557C208.715 22.2472 208.365 20.3977 208.365 18.2074C208.365 15.9574 208.728 14.0866 209.452 12.5952C210.176 11.0952 211.14 9.97443 212.341 9.23295C213.551 8.48295 214.877 8.10795 216.317 8.10795C217.417 8.10795 218.333 8.29545 219.066 8.67045C219.807 9.03693 220.404 9.49716 220.855 10.0511C221.316 10.5966 221.665 11.1335 221.904 11.6619H222.07V1.81818H227.503V28H222.134V24.8551H221.904C221.648 25.4006 221.286 25.9418 220.817 26.4787C220.357 27.0071 219.756 27.446 219.015 27.7955C218.282 28.1449 217.387 28.3196 216.33 28.3196ZM218.056 23.9858C218.934 23.9858 219.675 23.7472 220.28 23.2699C220.894 22.7841 221.363 22.1065 221.686 21.2372C222.019 20.3679 222.185 19.3494 222.185 18.1818C222.185 17.0142 222.023 16 221.699 15.1392C221.375 14.2784 220.907 13.6136 220.293 13.1449C219.679 12.6761 218.934 12.4418 218.056 12.4418C217.161 12.4418 216.407 12.6847 215.793 13.1705C215.179 13.6562 214.715 14.3295 214.399 15.1903C214.084 16.0511 213.926 17.0483 213.926 18.1818C213.926 19.3239 214.084 20.3338 214.399 21.2116C214.723 22.081 215.188 22.7628 215.793 23.2571C216.407 23.7429 217.161 23.9858 218.056 23.9858Z" fill="#F76E11"/>
</svg>
