<svg width="16" height="16" viewBox="0 0 16 16" fill="none" xmlns="http://www.w3.org/2000/svg">
<path fill-rule="evenodd" clip-rule="evenodd" d="M14.0698 5.84566L9.06748 1.60018C8.76987 1.34597 8.39131 1.2063 7.99991 1.2063C7.60851 1.2063 7.22995 1.34597 6.93234 1.60018L1.93043 5.84566C1.66625 6.07195 1.47695 6.37308 1.38756 6.70925C1.29816 7.04542 1.31288 7.4008 1.42976 7.72843C1.56204 8.10321 1.82205 8.41946 2.16418 8.62171V13.095C2.16006 13.5413 2.3334 13.971 2.64608 14.2896C2.95876 14.6081 3.38517 14.7894 3.83152 14.7936H12.1684C12.6148 14.7894 13.0412 14.6081 13.354 14.2896C13.6667 13.971 13.8401 13.5413 13.836 13.095V8.62171C14.178 8.41935 14.4379 8.10313 14.5701 7.72843C14.6869 7.40083 14.7017 7.04549 14.6124 6.70933C14.523 6.37318 14.3338 6.07203 14.0698 5.84566ZM8.83376 13.095H7.16611V9.69783H8.83375L8.83376 13.095ZM12.1684 7.15032V13.095H10.5011V9.69783C10.5051 9.2516 10.3316 8.82206 10.019 8.50365C9.70631 8.18525 9.27999 8.00406 8.83376 7.99992H7.16611C6.71988 8.00405 6.29356 8.18524 5.9809 8.50364C5.66824 8.82205 5.49484 9.2516 5.49883 9.69783V13.095H3.8315V7.15031H2.99782L8.00009 2.90426L13.0024 7.15031L12.1684 7.15032Z" fill="#9E9E9E"/>
</svg>
