<svg width="24" height="26" viewBox="0 0 24 26" fill="none" xmlns="http://www.w3.org/2000/svg">
<path d="M2 2.22974H3.74C4.82 2.22974 5.66999 3.20385 5.57999 4.32461L4.74999 14.7571C4.60999 16.4644 5.89998 17.9308 7.53998 17.9308H18.19C19.63 17.9308 20.89 16.6949 21 15.197L21.5399 7.34124C21.6599 5.60249 20.3999 4.18844 18.73 4.18844H5.82" stroke="#616161" stroke-width="2" stroke-miterlimit="10" stroke-linecap="round" stroke-linejoin="round"/>
<path d="M16.25 23.1784C16.9404 23.1784 17.5 22.5922 17.5 21.8691C17.5 21.146 16.9404 20.5598 16.25 20.5598C15.5596 20.5598 15 21.146 15 21.8691C15 22.5922 15.5596 23.1784 16.25 23.1784Z" stroke="#616161" stroke-width="2" stroke-miterlimit="10" stroke-linecap="round" stroke-linejoin="round"/>
<path d="M8.25 23.1784C8.94036 23.1784 9.5 22.5922 9.5 21.8691C9.5 21.146 8.94036 20.5598 8.25 20.5598C7.55964 20.5598 7 21.146 7 21.8691C7 22.5922 7.55964 23.1784 8.25 23.1784Z" stroke="#616161" stroke-width="2" stroke-miterlimit="10" stroke-linecap="round" stroke-linejoin="round"/>
<path d="M9 8.51416H21" stroke="#616161" stroke-width="2" stroke-miterlimit="10" stroke-linecap="round" stroke-linejoin="round"/>
</svg>
